<svg width="33" height="31" viewBox="0 0 33 31" fill="none" xmlns="http://www.w3.org/2000/svg">
<path d="M15.9967 3.8348V3.83586C15.9796 3.86532 12.4541 9.94664 8.05327 17.3716C3.64172 24.8145 0 30.7734 0 30.7734L12.4906 30.7186L12.4914 30.7184L12.4888 30.7281C18.5536 30.6107 24.0242 26.6233 25.6386 20.5985C26.1432 18.7151 26.2194 16.8193 25.9267 15.0074C25.1244 9.6722 21.1848 5.33315 15.9967 3.8348Z" fill="black"/>
<path d="M22.8993 0V0.00105766C22.8823 0.0305115 19.3568 6.11184 14.9559 13.5368C10.5444 20.9797 6.90263 26.9386 6.90263 26.9386L19.3932 26.8838L19.394 26.8836L19.3914 26.8933C25.4562 26.7759 30.9269 22.7885 32.5412 16.7637C33.0458 14.8803 33.122 12.9845 32.8293 11.1726C32.027 5.8374 28.0875 1.49835 22.8993 0Z" fill="#10F2C5"/>
</svg>
